<svg xmlns="http://www.w3.org/2000/svg" xmlns:xlink="http://www.w3.org/1999/xlink" width="100%" height="100%" version="1.1" viewBox="0 0 34 27" xml:space="preserve" style="fill-rule:evenodd;clip-rule:evenodd;stroke-linecap:round;stroke-linejoin:round;stroke-miterlimit:1.5"><g><g transform="matrix(1,0,0,1,-3397.14,-28.6685) matrix(1,0,0,1,2854.6,1.68043e-12)"><g id="Menu-Responsivo"><g transform="matrix(3.23232,0,0,24.6061,-10763.7,5.05611) matrix(0.309375,0,0,0.0406403,2446.86,1.56438e-12)"><rect width="31.422" height="5.604" x="3398.17" y="24.612" style="stroke:#f53e3e;stroke-opacity:0;stroke-width:2px"/></g><g transform="matrix(3.23232,0,0,24.6061,-10763.7,5.05611) matrix(0.309375,0,0,0.0406403,2446.87,0.373931)"><rect width="31.422" height="5.604" x="3398.17" y="24.612" style="stroke:#f53e3e;stroke-opacity:0;stroke-width:2px"/></g><g transform="matrix(3.23232,0,0,24.6061,-10763.7,5.05611) matrix(0.309375,0,0,0.0406403,2446.87,0.750121)"><rect width="31.422" height="5.604" x="3398.17" y="24.612" style="stroke:#f53e3e;stroke-opacity:0;stroke-width:2px"/></g></g></g></g></svg>